<?xml version="1.0" encoding="utf-8"?>
<svg version="1.1" id="Layer_1" xmlns="http://www.w3.org/2000/svg" x="0px" y="0px" width="16px" height="16px">
<path d="M7.5,0.9c0,0,0.2,0.1,0.4,0.3c0.8,0.6,1.5,1.3,2.2,2h0c0.4,0.5,0.8,0.9,1.1,1.4C11.5,5.1,12,6,12,6.1c0,0,0,0,0,0
	s0.1-0.1,0.1-0.3c0.1-0.4,0.1-0.4,0.3,0.4C12.9,7.2,13,8,13,9.1c0,0.9,0,1.2-0.2,1.9c0,0.2-0.1,0.3,0,0.3c0,0,0.2,0,0.3-0.1
	c0.1,0,0.3-0.1,0.3-0.1c0,0-0.3,0.7-0.6,1c-1.1,1.6-2.4,2.6-3.8,2.8c-0.8,0.1-1.6,0.1-2.3-0.2c-0.4-0.1-0.7-0.3-1.2-0.6
	c-1.1-0.7-1.9-2-2.4-3.6C2.8,9.8,2.7,8.7,2.7,8V7.7L2.9,8c0.4,0.5,0.8,1.1,0.8,1c0,0-0.1-0.2-0.2-0.4C3.2,8.2,3.2,8.2,3.4,7.4
	c0.3-1.2,1-2.5,1.9-3.6c0.1-0.2,0.3-0.4,0.5-0.6C6.4,2.6,7,2.1,7,2.1c0,0,0,0.1,0,0.2C6.9,2.8,6.7,3.5,6.7,3.5c0,0,0.1-0.2,0.2-0.3
	C6.9,3.1,7,3.1,7.1,2.9c0.2-0.3,0.3-0.6,0.3-0.6c0,0,0.1,0.1,0.2,0.2c0.2,0.2,0.2,0.2,0.2,0.1c0-0.1-0.1-0.5-0.2-0.9
	C7.5,1.3,7.5,0.9,7.5,0.9C7.5,0.9,7.5,0.9,7.5,0.9L7.5,0.9z M7.9,3.8l0,0.2c0,0.2-0.2,0.8-0.3,1c0,0.1,0.2-0.1,0.4-0.4
	C8,4.6,8.1,4.5,8.1,4.5c0,0,0.1,0.1,0.3,0.3c0.2,0.2,0.3,0.3,0.3,0.3c0,0-0.2-0.5-0.3-0.7C8.3,4.2,8.2,4.1,8.1,4L7.9,3.8z M5.7,5.5
	L5.6,5.6C5.4,5.8,5.2,6.2,5,6.5C4.9,6.8,4.8,7.2,4.8,7.3c0,0,0.1-0.1,0.1-0.2C5,6.9,5.4,6.4,5.5,6.4c0,0,0.1,0,0.1,0.1
	c0.1,0.1,0.3,0.5,0.3,0.5c0-0.1,0-0.2,0-0.3c0-0.1-0.1-0.4-0.1-0.6c0-0.1,0-0.3,0-0.4L5.7,5.5z M10.5,5.5c0,0,0,0.1,0,0.2
	c0,0.2-0.1,0.9-0.1,1.1c0,0.1,0,0.1,0.1,0c0.1-0.1,0.1-0.2,0.2-0.3c0.1-0.1,0.1-0.2,0.1-0.2c0-0.1,0.6,0.7,0.7,0.9c0,0,0,0.1,0,0.1
	c0,0-0.2-0.6-0.3-0.9C11,6.1,10.6,5.5,10.5,5.5L10.5,5.5z M8.2,6.5L8.2,6.5c0,0-0.2,0.4-0.3,0.7C7.8,7.4,7.7,8,7.7,8.3v0.3l0.1-0.4
	c0.1-0.3,0.2-0.7,0.3-0.8c0,0,0.1,0,0.2,0.1c0.1,0.1,0.2,0.2,0.3,0.2c0.1,0,0.1,0,0-0.1c-0.1-0.1-0.3-0.8-0.4-1
	C8.3,6.6,8.2,6.5,8.2,6.5L8.2,6.5z M5.9,9.3c-0.6,0-1.2,0.5-1.4,1.3c-0.1,0.3-0.1,0.6,0,0.9c0.2,0.7,0.6,1.2,1.2,1.4
	C5.8,13,6,13,6.2,13c0.3,0,0.4,0,0.6-0.1c0.4-0.2,0.8-0.7,0.9-1.3c0-0.3,0-0.4,0-0.6c-0.2-0.8-0.7-1.4-1.4-1.6
	C6.1,9.4,6,9.3,5.9,9.3L5.9,9.3z M10.4,9.3C10.4,9.3,10.4,9.4,10.4,9.3C9.6,9.4,8.9,10.1,8.7,11c-0.1,0.8,0.3,1.7,0.9,1.9
	c0.3,0.1,0.8,0.1,1.1,0c0.7-0.3,1.2-1.3,1.1-2.1c-0.1-0.8-0.6-1.3-1.2-1.4C10.6,9.4,10.5,9.4,10.4,9.3L10.4,9.3z M10,11.2
	c0.3,0,0.5,0.4,0.3,0.7C10.2,12,10,12,9.8,12C9.4,11.9,9.4,11.2,10,11.2C9.9,11.2,9.9,11.2,10,11.2z M6.5,11.2c0.2,0,0.2,0,0.3,0.1
	c0.2,0.2,0.1,0.5,0,0.6C6.6,12,6.4,12,6.3,12c-0.3-0.1-0.4-0.5-0.2-0.7C6.2,11.2,6.3,11.2,6.5,11.2L6.5,11.2z" fill="#548AF7"/>
</svg>
