<?xml version="1.0" encoding="utf-8"?>
<svg version="1.0" id="Layer_1" xmlns="http://www.w3.org/2000/svg" xmlns:xlink="http://www.w3.org/1999/xlink" x="0px" y="0px"
	 width="64px" height="64px" viewBox="0 0 64 64" enable-background="new 0 0 64 64" xml:space="preserve">
<path fill="#3574F0" d="M29.7,3c0,0,0.8,0.4,1.7,1.2c3.3,2.5,6.2,5.4,9.1,8.3l0,0c1.7,2.1,3.3,3.7,4.5,5.8c1.2,2.1,3.3,5.8,3.3,6.2
	l0,0c0,0,0.4-0.4,0.4-1.2c0.4-1.7,0.4-1.7,1.2,1.7c2.1,4.1,2.5,7.4,2.5,12c0,3.7,0,5-0.8,7.8c0,0.8-0.4,1.2,0,1.2c0,0,0.8,0,1.2-0.4
	c0.4,0,1.2-0.4,1.2-0.4s-1.2,2.9-2.5,4.1c-4.5,6.6-9.9,10.7-15.7,11.6c-3.3,0.4-6.6,0.4-9.5-0.8c-1.7-0.4-2.9-1.2-5-2.5
	c-4.5-2.9-7.8-8.3-9.9-14.9c-1.2-2.9-1.7-7.4-1.7-10.3v-1.2l0.8,1.2c1.7,2.1,3.3,4.5,3.3,4.1c0,0-0.4-0.8-0.8-1.7
	c-1.2-1.7-1.2-1.7-0.4-5c1.2-5,4.1-10.3,7.8-14.9c0.4-0.8,1.2-1.7,2.1-2.5c2.5-2.5,5-4.5,5-4.5s0,0.4,0,0.8c-0.4,2.1-1.2,5-1.2,5
	s0.4-0.8,0.8-1.2c0-0.4,0.4-0.4,0.8-1.2c0.8-1.2,1.2-2.5,1.2-2.5s0.4,0.4,0.8,0.8C31,10.4,31,10.4,31,10c0-0.4-0.4-2.1-0.8-3.7
	C29.7,4.6,29.7,3,29.7,3L29.7,3L29.7,3z M31.4,15v0.8c0,0.8-0.8,3.3-1.2,4.1c0,0.4,0.8-0.4,1.7-1.7l0.4-0.4c0,0,0.4,0.4,1.2,1.2
	c0.8,0.8,1.2,1.2,1.2,1.2s-0.8-2.1-1.2-2.9c-0.4-0.8-0.8-1.2-1.2-1.7L31.4,15z M22.3,22l-0.4,0.4c-0.8,0.8-1.7,2.5-2.5,3.7
	c-0.4,1.2-0.8,2.9-0.8,3.3c0,0,0.4-0.4,0.4-0.8c0.4-0.8,2.1-2.9,2.5-2.9c0,0,0.4,0,0.4,0.4c0.4,0.4,1.2,2.1,1.2,2.1
	c0-0.4,0-0.8,0-1.2s-0.4-1.7-0.4-2.5c0-0.4,0-1.2,0-1.7L22.3,22z M42.1,22c0,0,0,0.4,0,0.8c0,0.8-0.4,3.7-0.4,4.5c0,0.4,0,0.4,0.4,0
	c0.4-0.4,0.4-0.8,0.8-1.2c0.4-0.4,0.4-0.8,0.4-0.8c0-0.4,2.5,2.9,2.9,3.7v0.4c0,0-0.8-2.5-1.2-3.7C44.2,24.4,42.5,22,42.1,22
	L42.1,22z M32.6,26.1L32.6,26.1c0,0-0.8,1.7-1.2,2.9c-0.4,0.8-0.8,3.3-0.8,4.5v1.2l0.4-1.7c0.4-1.2,0.8-2.9,1.2-3.3
	c0,0,0.4,0,0.8,0.4c0.4,0.4,0.8,0.8,1.2,0.8s0.4,0,0-0.4c-0.4-0.4-1.2-3.3-1.7-4.1C33,26.5,32.6,26.1,32.6,26.1L32.6,26.1z
	 M23.1,37.7c-2.5,0-5,2.1-5.8,5.4c-0.4,1.2-0.4,2.5,0,3.7c0.8,2.9,2.5,5,5,5.8c0.4,0.4,1.2,0.4,2.1,0.4c1.2,0,1.7,0,2.5-0.4
	c1.7-0.8,3.3-2.9,3.7-5.4c0-1.2,0-1.7,0-2.5c-0.8-3.3-2.9-5.8-5.8-6.6C24,38.1,23.5,37.7,23.1,37.7L23.1,37.7z M41.7,37.7
	C41.7,37.7,41.7,38.1,41.7,37.7c-3.3,0.4-6.2,3.3-7,7c-0.4,3.3,1.2,7,3.7,7.8c1.2,0.4,3.3,0.4,4.5,0c2.9-1.2,5-5.4,4.5-8.7
	c-0.4-3.3-2.5-5.4-5-5.8C42.5,38.1,42.1,38.1,41.7,37.7L41.7,37.7z M40,45.5c1.2,0,2.1,1.7,1.2,2.9c-0.4,0.4-1.2,0.4-2.1,0.4
	C37.6,48.4,37.6,45.5,40,45.5C39.6,45.5,39.6,45.5,40,45.5z M25.6,45.5c0.8,0,0.8,0,1.2,0.4c0.8,0.8,0.4,2.1,0,2.5
	c-0.8,0.4-1.7,0.4-2.1,0.4c-1.2-0.4-1.7-2.1-0.8-2.9C24.4,45.5,24.8,45.5,25.6,45.5L25.6,45.5z"/>
</svg>
